<?xml version="1.0" encoding="utf-8"?>
<!-- Generator: Adobe Illustrator 23.0.3, SVG Export Plug-In . SVG Version: 6.00 Build 0)  -->
<svg version="1.1" id="Camada_1" xmlns="http://www.w3.org/2000/svg" xmlns:xlink="http://www.w3.org/1999/xlink" x="0px" y="0px"
	 viewBox="0 0 852.4 216.6" style="enable-background:new 0 0 852.4 216.6;" xml:space="preserve">
<style type="text/css">
	.st0{fill:#333333;}
	.st1{fill:#B81E27;}
</style>
<title>LogoSimSave</title>
<g>
	<g id="Layer_1">
		<path class="st0" d="M315.7,120c-13.2-3.8-22.7-8.4-28.7-13.9c-5.8-5.2-9.1-12.6-9-20.4c0-9.2,3.7-16.7,11-22.7
			c7.3-6,16.8-9,28.5-9c7.4-0.1,14.7,1.5,21.4,4.6c5.9,2.8,11,7.2,14.5,12.8c3.4,5.3,5.2,11.5,5.1,17.8h-15.4c0-7-2.2-12.6-6.7-16.6
			c-4.5-4-10.8-6-18.9-6c-7.6,0-13.5,1.7-17.7,5c-4.2,3.3-6.4,8-6.4,13.9c0,4.8,2,8.8,6,12s10.8,6.2,20.5,9c9.7,2.7,17.2,5.7,22.7,9
			c4.9,2.8,9.1,6.7,12.1,11.5c2.7,4.7,4.1,10,4,15.4c0,9.4-3.7,17-11,22.6c-7.3,5.7-17.2,8.5-29.5,8.5c-7.7,0.1-15.3-1.5-22.4-4.6
			c-6.4-2.6-11.9-7-16-12.6c-3.7-5.3-5.7-11.6-5.6-18.1h15.4c0,7,2.6,12.6,7.8,16.6c5.2,4.1,12.1,6.1,20.8,6.1
			c8.1,0,14.3-1.6,18.6-4.9c4.2-3.2,6.7-8.2,6.5-13.5c0-5.7-2-10.1-6-13.2C333.4,126.1,326.2,123,315.7,120z"/>
	


	
	</g>
</g>
</svg>
