<?xml version="1.0" encoding="utf-8"?>
<!-- Generator: Adobe Illustrator 23.0.3, SVG Export Plug-In . SVG Version: 6.00 Build 0)  -->
<svg version="1.1" id="Camada_1" xmlns="http://www.w3.org/2000/svg" xmlns:xlink="http://www.w3.org/1999/xlink" x="0px" y="0px"
	 viewBox="0 0 852.4 216.6" style="enable-background:new 0 0 852.4 216.6;" xml:space="preserve">
<style type="text/css">
	.st0{fill:#333333;}
	.st1{fill:#B81E27;}
</style>
<title>LogoSimSave</title>
<g>
	<g id="Layer_1">
		<path class="st0" d="M315.7,120c-13.2-3.8-22.7-8.4-28.7-13.9c-5.8-5.2-9.1-12.6-9-20.4c0-9.2,3.7-16.7,11-22.7
			c7.3-6,16.8-9,28.5-9c7.4-0.1,14.7,1.5,21.4,4.6c5.9,2.8,11,7.2,14.5,12.8c3.4,5.3,5.2,11.5,5.1,17.8h-15.4c0-7-2.2-12.6-6.7-16.6
			c-4.5-4-10.8-6-18.9-6c-7.6,0-13.5,1.7-17.7,5c-4.2,3.3-6.4,8-6.4,13.9c0,4.8,2,8.8,6,12s10.8,6.2,20.5,9c9.7,2.7,17.2,5.7,22.7,9
			c4.9,2.8,9.1,6.7,12.1,11.5c2.7,4.7,4.1,10,4,15.4c0,9.4-3.7,17-11,22.6c-7.3,5.7-17.2,8.5-29.5,8.5c-7.7,0.1-15.3-1.5-22.4-4.6
			c-6.4-2.6-11.9-7-16-12.6c-3.7-5.3-5.7-11.6-5.6-18.1h15.4c0,7,2.6,12.6,7.8,16.6c5.2,4.1,12.1,6.1,20.8,6.1
			c8.1,0,14.3-1.6,18.6-4.9c4.2-3.2,6.7-8.2,6.5-13.5c0-5.7-2-10.1-6-13.2C333.4,126.1,326.2,123,315.7,120z"/>
		<path class="st0" d="M368,62.5c-0.1-2.2,0.7-4.4,2.2-6.1c1.5-1.6,3.6-2.5,6.5-2.5s5.1,0.8,6.5,2.5c1.5,1.7,2.3,3.8,2.2,6.1
			c0.1,2.2-0.7,4.4-2.2,6c-1.5,1.6-3.7,2.4-6.5,2.4s-5-0.8-6.5-2.4C368.8,66.8,368,64.7,368,62.5z M384,171.8h-14.8V85.4H384
			L384,171.8z"/>
		<path class="st0" d="M413.4,85.4l0.4,9.6c6.3-7.5,14.9-11.2,25.6-11.2c12.1,0,20.3,4.6,24.7,13.9c6.2-9,16.6-14.3,27.5-13.9
			c19,0,28.6,10,28.9,30.1v57.9h-14.8v-57c0-6.2-1.4-10.8-4.2-13.9c-2.8-3.1-7.6-4.6-14.2-4.6c-5-0.2-9.9,1.6-13.6,4.9
			c-3.6,3.3-5.7,7.7-6.3,13.2v57.3h-14.9v-56.7c0-12.6-6.1-18.8-18.5-18.8c-9.7,0-16.3,4.1-19.9,12.4v63.1h-14.8V85.4H413.4z"/>
		<path class="st0" d="M599.2,141.9c0.1-4.6-1.9-8.9-5.4-11.9c-3.6-3.1-9.9-5.8-19-8.3c-13-3.4-23-7.9-30-13.5
			c-6.8-5.3-10.7-13.5-10.5-22.1c0-9.4,3.9-17.1,11.6-23.2c7.7-6.1,17.7-9.1,30-9.1c12.8,0,23,3.4,30.8,10.3s11.5,15.2,11.2,24.8
			l-0.2,0.5h-18.6c0-6-2-10.8-6.1-14.5c-4-3.7-9.8-5.6-17.3-5.6c-7.1,0-12.5,1.5-16.3,4.6c-3.7,2.9-5.8,7.3-5.7,12
			c0,4.4,2.1,8.1,6.2,11c4.1,2.9,11,5.7,20.5,8.3c12.5,3.3,22,8,28.5,13.9s9.8,13.5,9.8,22.6c0.2,9.1-4.1,17.8-11.6,23.1
			c-7.7,5.7-17.9,8.6-30.5,8.6c-12.1,0-22.8-3.2-32-9.7c-9.2-6.5-13.6-15.3-13.3-26.5l0.2-0.5H550c0,7.1,2.5,12.4,7.3,15.9
			s11.3,5.2,19.1,5.2c7.2,0,12.8-1.4,16.8-4.3C597.1,151,599.3,146.5,599.2,141.9z"/>
		<path class="st0" d="M680.4,171.8c-0.7-2.2-1.3-4.3-1.7-6.4c-0.4-2.1-0.8-4.1-0.9-6.2c-2.7,4.1-6.3,7.6-10.5,10.2
			c-4.4,2.7-9.4,4.2-14.6,4.1c-9,0-15.9-2.3-20.7-6.9s-7.2-11-7.2-19.1c0-8.4,3.3-14.9,9.9-19.5c6.6-4.7,15.9-7,27.9-7h15.1v-7.6
			c0-4.5-1.3-8.1-4-10.6c-2.7-2.5-6.5-3.8-11.4-3.8c-4.4,0-7.9,1.1-10.5,3.2c-2.5,2-4,5-3.9,8.2H629l-0.1-0.5
			c-0.4-6.8,2.7-12.9,9.1-18.1c6.5-5.3,14.9-7.9,25.3-7.9c10.1,0,18.2,2.6,24.4,7.7c6.2,5.1,9.3,12.4,9.3,22v38.4
			c0,3.4,0.2,6.9,0.7,10.3c0.5,3.3,1.3,6.5,2.3,9.6L680.4,171.8z M656.6,157.9c4.7,0.1,9.3-1.2,13.2-3.7c3.9-2.4,6.5-5.2,7.8-8.4
			v-12.8h-15.4c-5.6,0-10.1,1.4-13.3,4.2c-3,2.4-4.8,6-4.8,9.9c-0.1,3,1,5.9,3.2,7.9C649.5,156.9,652.6,157.9,656.6,157.9
			L656.6,157.9z"/>
		<path class="st0" d="M737.9,142.6l1.4,7h0.5l1.5-7l17.2-57.2h20l-30.7,86.4h-16.8l-30.8-86.4h20L737.9,142.6z"/>
		<path class="st0" d="M818.6,173.5c-12.2,0-22-4-29.3-12c-7.3-8-10.9-18.3-10.9-30.9v-3.2c0-12.6,3.6-23,10.8-31.3
			c6.7-8,16.7-12.6,27.1-12.3c11.7,0,20.6,3.5,26.8,10.6c6.2,7.1,9.3,16.5,9.3,28.4v11.4h-53.9l-0.2,0.4c0.3,6.9,2.3,12.5,6,16.8
			c3.7,4.3,8.8,6.5,15.4,6.5c4.6,0.1,9.1-0.6,13.5-1.9c3.8-1.3,7.5-3.2,10.8-5.5l6.2,12.7c-3.8,3.2-8.2,5.7-12.9,7.3
			C831.3,172.6,824.9,173.6,818.6,173.5z M816.3,99.4c-4.6-0.1-9,2-11.8,5.7c-3.2,4.2-5.2,9.2-5.8,14.5l0.2,0.4h34.3v-2
			c0-5.5-1.4-10-4.2-13.4C826.2,101.1,822,99.4,816.3,99.4z"/>
		<path class="st1" d="M64.1,83.7c2.7,0,3.8-0.9,4.8-3.4c6.8-18.3,13.7-36.6,20.5-55c1.3-3.6,3.5-6.2,7.6-6.4s6.8,1.8,8.5,6.7
			c7.1,19.9,14.2,39.8,21.3,59.7c4.3,12,8.6,24,13.1,36.6c1.1-1.5,1.9-2.6,2.7-3.7c6.7-10,13.4-20.1,20.1-30.2
			c1.9-2.8,4.2-4.5,7.8-4.5c14.4,0,56.9,0,76.8,0V21c0-11.6-9.4-21-21-21H21C9.5,0,0,9.4,0,21c0,0,0,0,0,0.1v62.5
			C18.3,83.5,53.5,83.5,64.1,83.7z"/>
		<path class="st1" d="M178.4,99.5c-2.5-0.3-4.8,1-6.1,3.2c-8.8,13.4-17.8,26.7-26.6,40.1c-2.2,3.3-4.6,5.8-8.9,5.3
			s-6.1-3.5-7.4-7.2c-10.2-28.8-20.5-57.6-30.9-86.4c-0.3-1-0.8-1.9-1.5-3.7l-15.4,41c-2.5,6.8-4.1,7.9-11.3,7.9
			c-12.7,0-49.9,0-70.4,0v53l0,0c0,11.6,9.4,21,21,21c0,0,0,0,0.1,0h31.6v32.5c0,5.8,4.7,10.5,10.6,10.5c2.8,0,5.5-1.1,7.4-3.1
			l39.8-39.8h115.8c11.6,0,21-9.4,21-21v-53C230.3,99.7,190.1,99.7,178.4,99.5z"/>
	</g>
</g>
</svg>
